<svg xmlns="http://www.w3.org/2000/svg" width="20" height="20" viewBox="0 0 20 20" fill="none">
  <g opacity="0.5">
    <path d="M15.8334 5.83333L14.7143 6.9525M14.7143 6.9525C13.464 5.70223 11.7682 4.99983 10.0001 4.99983C8.23193 4.99983 6.5362 5.70223 5.28592 6.9525C4.03565 8.20278 3.33325 9.89851 3.33325 11.6667C3.33325 13.4348 4.03565 15.1306 5.28592 16.3808C6.5362 17.6311 8.23193 18.3335 10.0001 18.3335C11.7682 18.3335 13.464 17.6311 14.7143 16.3808C15.9645 15.1306 16.6669 13.4348 16.6669 11.6667C16.6669 9.89851 15.9645 8.20278 14.7143 6.9525ZM10.0001 8.33333V11.6667M7.50009 2.5H12.5001" stroke="#6E8F1B" stroke-width="2" stroke-linecap="round" stroke-linejoin="round"/>
  </g>
</svg>