<svg xmlns="http://www.w3.org/2000/svg" width="20" height="20" viewBox="0 0 20 20" fill="none">
  <g opacity="0.5">
    <path d="M16.6668 15.8333V8.74999C16.6668 8.62062 16.6367 8.49302 16.5789 8.37731C16.521 8.2616 16.437 8.16095 16.3335 8.08332L10.5002 3.70832C10.3559 3.60014 10.1805 3.54166 10.0002 3.54166C9.81985 3.54166 9.64441 3.60014 9.50016 3.70832L3.66683 8.08332C3.56333 8.16095 3.47933 8.2616 3.42147 8.37731C3.36362 8.49302 3.3335 8.62062 3.3335 8.74999V15.8333C3.3335 16.0543 3.42129 16.2663 3.57757 16.4226C3.73385 16.5789 3.94582 16.6667 4.16683 16.6667H7.50016C7.72118 16.6667 7.93314 16.5789 8.08942 16.4226C8.2457 16.2663 8.3335 16.0543 8.3335 15.8333V13.3333C8.3335 13.1123 8.42129 12.9003 8.57757 12.7441C8.73385 12.5878 8.94582 12.5 9.16683 12.5H10.8335C11.0545 12.5 11.2665 12.5878 11.4228 12.7441C11.579 12.9003 11.6668 13.1123 11.6668 13.3333V15.8333C11.6668 16.0543 11.7546 16.2663 11.9109 16.4226C12.0672 16.5789 12.2791 16.6667 12.5002 16.6667H15.8335C16.0545 16.6667 16.2665 16.5789 16.4228 16.4226C16.579 16.2663 16.6668 16.0543 16.6668 15.8333Z" stroke="#6E8F1B" stroke-width="1.66667" stroke-linecap="round" stroke-linejoin="round"/>
  </g>
</svg>