<svg xmlns="http://www.w3.org/2000/svg" width="20" height="20" viewBox="0 0 20 20" fill="none">
  <path d="M16.6666 15.8333V8.74999C16.6666 8.62062 16.6365 8.49302 16.5786 8.37731C16.5208 8.2616 16.4367 8.16095 16.3333 8.08332L10.4999 3.70832C10.3557 3.60014 10.1802 3.54166 9.99992 3.54166C9.81961 3.54166 9.64417 3.60014 9.49992 3.70832L3.66659 8.08332C3.56309 8.16095 3.47909 8.2616 3.42123 8.37731C3.36337 8.49302 3.33325 8.62062 3.33325 8.74999V15.8333C3.33325 16.0543 3.42105 16.2663 3.57733 16.4226C3.73361 16.5789 3.94557 16.6667 4.16659 16.6667H7.49992C7.72093 16.6667 7.93289 16.5789 8.08917 16.4226C8.24545 16.2663 8.33325 16.0543 8.33325 15.8333V13.3333C8.33325 13.1123 8.42105 12.9003 8.57733 12.7441C8.73361 12.5878 8.94557 12.5 9.16658 12.5H10.8333C11.0543 12.5 11.2662 12.5878 11.4225 12.7441C11.5788 12.9003 11.6666 13.1123 11.6666 13.3333V15.8333C11.6666 16.0543 11.7544 16.2663 11.9107 16.4226C12.0669 16.5789 12.2789 16.6667 12.4999 16.6667H15.8333C16.0543 16.6667 16.2662 16.5789 16.4225 16.4226C16.5788 16.2663 16.6666 16.0543 16.6666 15.8333Z" fill="#A7DC22" stroke="#A7DC22" stroke-width="1.66667" stroke-linecap="round" stroke-linejoin="round"/>
</svg>