<svg xmlns="http://www.w3.org/2000/svg" width="30" height="23" viewBox="0 0 30 23" fill="none">
  <path d="M11 12.8333C13.9455 12.8333 16.3333 10.4455 16.3333 7.49996C16.3333 4.55444 13.9455 2.16663 11 2.16663C8.05444 2.16663 5.66663 4.55444 5.66663 7.49996C5.66663 10.4455 8.05444 12.8333 11 12.8333Z" fill="#FFA046" stroke="#FFA046" stroke-width="2.66667" stroke-linecap="round" stroke-linejoin="round"/>
  <path d="M11 12.8333C5.84529 12.8333 1.66663 16.4146 1.66663 20.8333H20.3333C20.3333 16.4146 16.1546 12.8333 11 12.8333Z" fill="#FFA046" stroke="#FFA046" stroke-width="2.66667" stroke-linecap="round" stroke-linejoin="round"/>
  <path d="M19 12.8333C19.8912 12.8332 20.7681 12.6099 21.5508 12.1836C22.3334 11.7573 22.9967 11.1417 23.4801 10.3931C23.9636 9.64441 24.2517 8.78654 24.3182 7.89785C24.3847 7.00915 24.2274 6.11796 23.8607 5.30569C23.4941 4.49343 22.9297 3.786 22.2193 3.24802C21.5088 2.71005 20.6748 2.35869 19.7935 2.22604C18.9123 2.09339 18.0118 2.18369 17.1745 2.48867C16.3371 2.79366 15.5895 3.30362 15 3.97196M19 12.8333C17.924 12.8333 16.196 12.4426 15 11.1866M19 12.8333C24.1547 12.8333 28.3333 16.4146 28.3333 20.8333H20.3333" stroke="#FFA046" stroke-width="2.66667" stroke-linecap="round" stroke-linejoin="round"/>
</svg>