<svg xmlns="http://www.w3.org/2000/svg" width="20" height="20" viewBox="0 0 20 20" fill="none">
  <g opacity="0.5">
    <path d="M14.1667 2.5H5.83341C5.39139 2.5 4.96746 2.67559 4.6549 2.98816C4.34234 3.30072 4.16675 3.72464 4.16675 4.16667V16.7817C4.16677 16.8546 4.18596 16.9263 4.22238 16.9895C4.25881 17.0528 4.3112 17.1053 4.37431 17.1419C4.43742 17.1785 4.50904 17.198 4.58201 17.1982C4.65497 17.1984 4.72672 17.1795 4.79008 17.1433L9.17342 14.6392C9.42519 14.4953 9.71013 14.4197 10.0001 14.4197C10.29 14.4197 10.575 14.4953 10.8267 14.6392L15.2101 17.1442C15.2735 17.1804 15.3453 17.1993 15.4184 17.199C15.4914 17.1987 15.5631 17.1793 15.6262 17.1426C15.6894 17.1058 15.7417 17.0532 15.7781 16.9898C15.8145 16.9265 15.8335 16.8547 15.8334 16.7817V4.16667C15.8334 3.72464 15.6578 3.30072 15.3453 2.98816C15.0327 2.67559 14.6088 2.5 14.1667 2.5Z" stroke="#6E8F1B" stroke-width="2" stroke-linecap="round" stroke-linejoin="round"/>
  </g>
</svg>