<svg xmlns="http://www.w3.org/2000/svg" width="20" height="20" viewBox="0 0 20 20" fill="none">
  <path fill-rule="evenodd" clip-rule="evenodd" d="M5.8335 1.66666C5.17045 1.66666 4.53457 1.93005 4.06573 2.39889C3.59689 2.86773 3.3335 3.50362 3.3335 4.16666V16.7817C3.33342 17.0006 3.39087 17.2158 3.50008 17.4056C3.6093 17.5953 3.76645 17.7531 3.95582 17.8631C4.14518 17.973 4.3601 18.0313 4.57906 18.0321C4.79803 18.0329 5.01336 17.9761 5.2035 17.8675L9.58683 15.3625C9.71272 15.2906 9.85519 15.2528 10.0002 15.2528C10.1451 15.2528 10.2876 15.2906 10.4135 15.3625L14.7968 17.8675C14.987 17.9761 15.2023 18.0329 15.4213 18.0321C15.6402 18.0313 15.8552 17.973 16.0445 17.8631C16.2339 17.7531 16.391 17.5953 16.5002 17.4056C16.6095 17.2158 16.6669 17.0006 16.6668 16.7817V4.16666C16.6668 3.50362 16.4034 2.86773 15.9346 2.39889C15.4658 1.93005 14.8299 1.66666 14.1668 1.66666H5.8335Z" fill="#A7DC22"/>
</svg>