<svg xmlns="http://www.w3.org/2000/svg" width="28" height="28" viewBox="0 0 28 28" fill="none">
  <path fill-rule="evenodd" clip-rule="evenodd" d="M11.5174 0.419898C12.1146 0.240744 12.7454 0.203682 13.3595 0.311674C13.9736 0.419665 14.5539 0.669717 15.0542 1.04187C15.5544 1.41403 15.9608 1.89798 16.2407 2.45509C16.5207 3.0122 16.6666 3.62706 16.6667 4.25057V23.7492C16.6666 24.3727 16.5207 24.9876 16.2407 25.5447C15.9608 26.1018 15.5544 26.5858 15.0542 26.9579C14.5539 27.3301 13.9736 27.5801 13.3595 27.6881C12.7454 27.7961 12.1146 27.7591 11.5174 27.5799L3.51735 25.1799C2.69349 24.9328 1.97123 24.4266 1.45773 23.7366C0.944226 23.0466 0.666828 22.2094 0.666687 21.3492V6.65057C0.666828 5.79043 0.944226 4.95325 1.45773 4.26321C1.97123 3.57318 2.69349 3.06704 3.51735 2.8199L11.5174 0.419898ZM18 3.33323C18 2.97961 18.1405 2.64047 18.3905 2.39042C18.6406 2.14037 18.9797 1.9999 19.3334 1.9999H23.3334C24.3942 1.9999 25.4116 2.42133 26.1618 3.17147C26.9119 3.92162 27.3334 4.93903 27.3334 5.9999V7.33323C27.3334 7.68685 27.1929 8.02599 26.9428 8.27604C26.6928 8.52609 26.3536 8.66656 26 8.66656C25.6464 8.66656 25.3073 8.52609 25.0572 8.27604C24.8072 8.02599 24.6667 7.68685 24.6667 7.33323V5.9999C24.6667 5.64628 24.5262 5.30714 24.2762 5.05709C24.0261 4.80704 23.687 4.66656 23.3334 4.66656H19.3334C18.9797 4.66656 18.6406 4.52609 18.3905 4.27604C18.1405 4.02599 18 3.68685 18 3.33323ZM26 19.3332C26.3536 19.3332 26.6928 19.4737 26.9428 19.7238C27.1929 19.9738 27.3334 20.3129 27.3334 20.6666V21.9999C27.3334 23.0608 26.9119 24.0782 26.1618 24.8283C25.4116 25.5785 24.3942 25.9999 23.3334 25.9999H19.3334C18.9797 25.9999 18.6406 25.8594 18.3905 25.6094C18.1405 25.3593 18 25.0202 18 24.6666C18 24.3129 18.1405 23.9738 18.3905 23.7238C18.6406 23.4737 18.9797 23.3332 19.3334 23.3332H23.3334C23.687 23.3332 24.0261 23.1928 24.2762 22.9427C24.5262 22.6927 24.6667 22.3535 24.6667 21.9999V20.6666C24.6667 20.3129 24.8072 19.9738 25.0572 19.7238C25.3073 19.4737 25.6464 19.3332 26 19.3332ZM10 12.6666C9.6464 12.6666 9.30726 12.807 9.05721 13.0571C8.80716 13.3071 8.66669 13.6463 8.66669 13.9999C8.66669 14.3535 8.80716 14.6927 9.05721 14.9427C9.30726 15.1928 9.6464 15.3332 10 15.3332H10.0014C10.355 15.3332 10.6941 15.1928 10.9442 14.9427C11.1942 14.6927 11.3347 14.3535 11.3347 13.9999C11.3347 13.6463 11.1942 13.3071 10.9442 13.0571C10.6941 12.807 10.355 12.6666 10.0014 12.6666H10Z" fill="#FF54A1"/>
  <path d="M19.3334 13.9999H26M26 13.9999L23.3334 11.3333M26 13.9999L23.3334 16.6666" stroke="#FF54A1" stroke-width="2.66667" stroke-linecap="round" stroke-linejoin="round"/>
</svg>