<svg xmlns="http://www.w3.org/2000/svg" width="32" height="32" viewBox="0 0 32 32" fill="none">
  <path fill-rule="evenodd" clip-rule="evenodd" d="M4 6.66663C4 5.60576 4.42143 4.58834 5.17157 3.8382C5.92172 3.08805 6.93913 2.66663 8 2.66663H24C25.0609 2.66663 26.0783 3.08805 26.8284 3.8382C27.5786 4.58834 28 5.60576 28 6.66663V25.3333C28 26.3942 27.5786 27.4116 26.8284 28.1617C26.0783 28.9119 25.0609 29.3333 24 29.3333H8C6.93913 29.3333 5.92172 28.9119 5.17157 28.1617C4.42143 27.4116 4 26.3942 4 25.3333V6.66663ZM10.6667 6.66663V16L13.724 12.9426C13.974 12.6927 14.3131 12.5522 14.6667 12.5522C15.0202 12.5522 15.3593 12.6927 15.6093 12.9426L18.6667 16V6.66663C18.6667 6.313 18.5262 5.97387 18.2761 5.72382C18.0261 5.47377 17.687 5.33329 17.3333 5.33329H12C11.6464 5.33329 11.3072 5.47377 11.0572 5.72382C10.8071 5.97387 10.6667 6.313 10.6667 6.66663Z" fill="#A7DC22"/>
</svg>