<svg xmlns="http://www.w3.org/2000/svg" width="20" height="20" viewBox="0 0 20 20" fill="none">
  <g opacity="0.5">
    <path fill-rule="evenodd" clip-rule="evenodd" d="M1.66699 5.00018C1.66699 4.34271 2.19998 3.80972 2.85745 3.80972H17.1429C17.8004 3.80972 18.3334 4.34271 18.3334 5.00018C18.3334 5.65765 17.8004 6.19064 17.1429 6.19064H2.85745C2.19998 6.19064 1.66699 5.65765 1.66699 5.00018ZM1.66699 9.76201C1.66699 9.10454 2.19998 8.57155 2.85745 8.57155H17.1429C17.8004 8.57155 18.3334 9.10454 18.3334 9.76201C18.3334 10.4195 17.8004 10.9525 17.1429 10.9525H2.85745C2.19998 10.9525 1.66699 10.4195 1.66699 9.76201ZM1.66699 14.5238C1.66699 13.8664 2.19998 13.3334 2.85745 13.3334H17.1429C17.8004 13.3334 18.3334 13.8664 18.3334 14.5238C18.3334 15.1813 17.8004 15.7143 17.1429 15.7143H2.85745C2.19998 15.7143 1.66699 15.1813 1.66699 14.5238Z" fill="#6E8F1B"/>
  </g>
</svg>