<svg xmlns="http://www.w3.org/2000/svg" width="16" height="18" viewBox="0 0 16 18" fill="none">
  <path d="M1.3335 4.83332V6.49999H14.6668V4.83332C14.6668 4.3913 14.4912 3.96737 14.1787 3.65481C13.8661 3.34225 13.4422 3.16666 13.0002 3.16666H3.00016C2.55814 3.16666 2.13421 3.34225 1.82165 3.65481C1.50909 3.96737 1.3335 4.3913 1.3335 4.83332Z" fill="#A7DC22"/>
  <path d="M11.3335 3.16667H13.0002C13.4422 3.16667 13.8661 3.34226 14.1787 3.65482C14.4912 3.96738 14.6668 4.39131 14.6668 4.83333V6.5H1.3335V4.83333C1.3335 4.39131 1.50909 3.96738 1.82165 3.65482C2.13421 3.34226 2.55814 3.16667 3.00016 3.16667H4.66683M11.3335 3.16667V1.5M11.3335 3.16667H4.66683M4.66683 3.16667V1.5M1.3335 6.91667V14.8333C1.3335 15.2754 1.50909 15.6993 1.82165 16.0118C2.13421 16.3244 2.55814 16.5 3.00016 16.5H13.0002C13.4422 16.5 13.8661 16.3244 14.1787 16.0118C14.4912 15.6993 14.6668 15.2754 14.6668 14.8333V6.91667" stroke="#A7DC22" stroke-width="2" stroke-linecap="round" stroke-linejoin="round"/>
</svg>